PathFileType	4	(X/Y/Z)	C:/Users/opensim2020/Desktop/walking_exp_matlab/subject01_walking09_straight_03.trc	
DataRate	CameraRate	NumFrames	NumMarkers	Units	OrigDataRate	OrigDataStartFrame	OrigNumFrames	
100.00	100.00	7	43	mm	100.00	3105	348	
Frame#	Time	LFHD			RFHD			LBHD			RBHD			C7			T10			CLAV			STRN			RBAK			LSHO			LUPA			LELB			LFRM			LWRA			LWRB			LFIN			RSHO			RUPA			RELB			RFRM			RWRA			RWRB			RFIN			LASI			RASI			LPSI			RPSI			LTHI			LKNE			LTIB			LANK			LHEE			LTOE			RTHI			RKNE			RTIB			RANK			RHEE			RTOE			*39			*40			*41			*42			
		X1	Y1	Z1	X2	Y2	Z2	X3	Y3	Z3	X4	Y4	Z4	X5	Y5	Z5	X6	Y6	Z6	X7	Y7	Z7	X8	Y8	Z8	X9	Y9	Z9	X10	Y10	Z10	X11	Y11	Z11	X12	Y12	Z12	X13	Y13	Z13	X14	Y14	Z14	X15	Y15	Z15	X16	Y16	Z16	X17	Y17	Z17	X18	Y18	Z18	X19	Y19	Z19	X20	Y20	Z20	X21	Y21	Z21	X22	Y22	Z22	X23	Y23	Z23	X24	Y24	Z24	X25	Y25	Z25	X26	Y26	Z26	X27	Y27	Z27	X28	Y28	Z28	X29	Y29	Z29	X30	Y30	Z30	X31	Y31	Z31	X32	Y32	Z32	X33	Y33	Z33	X34	Y34	Z34	X35	Y35	Z35	X36	Y36	Z36	X37	Y37	Z37	X38	Y38	Z38	X39	Y39	Z39	X40	Y40	Z40	X41	Y41	Z41	X42	Y42	Z42	X43	Y43	Z43	

262	2.610	-1053.07361	487.87784	1679.38953	-938.97028	497.15485	1687.62451	-1048.49609	380.56042	1615.86743	-927.32007	387.58249	1622.81775	-1002.35321	366.19211	1429.31506	-996.14191	345.06937	1136.10303	-996.75305	513.62347	1371.02686	-1004.57861	564.84735	1217.83728	-927.42230	321.58948	1231.01697	-1158.92725	456.26038	1397.70630	-1250.06409	456.58978	1216.53552	-1258.25916	475.00153	1064.13501	-1273.26758	554.31140	977.11505	-1237.00952	666.70648	901.94781	-1270.69531	623.84491	876.76471	-1270.76843	697.01508	833.76892	-846.72180	444.98181	1392.02869	-752.66553	388.63623	1187.80762	-753.43884	392.86057	1063.59961	-723.71124	417.93280	946.31592	-744.67578	495.47876	827.62933	-705.13153	452.58521	829.57904	-709.47137	487.49329	749.66211	-1107.04810	519.95563	930.41156	-891.03760	530.18481	939.96454	-1045.17737	336.29578	944.58765	-899.95844	344.36856	950.06836	-1158.90002	456.08685	595.43250	-1150.37268	425.57544	462.91568	-1160.81738	292.87531	326.28711	-1115.13025	162.13480	147.66771	-1060.14368	112.48273	147.80376	-1115.48242	258.48804	35.79966	-828.91992	528.65564	610.61334	-856.67169	570.44110	458.04770	-844.98511	544.04102	283.10651	-890.59442	543.57745	77.71872	-941.31378	496.29468	37.34629	-891.11346	684.49402	42.29126	-962.37994	480.18359	1718.75842	-3101.93286	1973.06311	1023.31177	-3140.74438	2012.52502	1022.12628			 
263	2.620	-1051.57349	494.44525	1680.03979	-937.37476	503.69882	1688.40027	-1046.98364	387.02017	1616.69080	-925.77863	394.01950	1623.71411	-1000.43781	372.55179	1430.06665	-993.76410	351.83682	1136.77454	-994.85309	520.13885	1371.93701	-1002.42352	571.61035	1218.79309	-924.97168	328.35580	1231.73645	-1157.01404	462.68222	1398.38306	-1248.05237	462.39966	1217.15149	-1256.06763	479.72705	1064.68933	-1271.38684	557.82257	976.72388	-1234.97461	669.45435	900.18713	-1268.67041	626.35767	875.51483	-1268.80957	698.87604	831.64478	-844.82483	451.51447	1393.03381	-750.33167	395.57135	1188.83936	-751.15875	400.47025	1064.55627	-721.75220	426.25314	947.28284	-743.20422	504.34021	829.09357	-703.32147	461.70084	830.81592	-708.16547	497.02936	750.89868	-1104.61572	526.73364	931.55371	-888.77167	536.96716	940.43036	-1043.09399	343.05530	945.29401	-897.81494	351.07516	950.98633	-1158.29211	467.97235	595.78094	-1150.41309	439.62756	463.09674	-1160.59985	303.93280	329.85037	-1115.42407	169.66055	153.61331	-1059.93970	121.17952	155.96550	-1115.12195	259.31491	36.04436	-827.54584	532.81299	610.59717	-855.32788	573.09259	457.68274	-844.44507	545.19305	282.86450	-890.62592	543.95715	77.68950	-941.33295	496.32074	37.40517	-891.09717	684.79468	42.02780	-960.98389	486.77942	1719.80859	-3102.01807	1972.99866	1023.85205	-3140.82080	2012.53467	1022.11163			 
264	2.630	-1050.11853	500.95602	1680.59558	-935.91492	510.26627	1689.07434	-1045.31287	393.55621	1617.28198	-924.08856	400.53146	1624.51501	-998.36279	379.02487	1430.56201	-991.38837	358.55896	1137.32996	-993.01001	526.62622	1372.69348	-1000.32361	578.30737	1219.62585	-922.52405	335.07712	1232.40308	-1155.19250	469.06183	1398.91602	-1245.95715	468.07413	1217.58972	-1254.00134	484.36743	1065.01892	-1269.29700	561.42828	976.21716	-1232.98596	672.06537	898.31177	-1266.71521	628.76843	874.18091	-1266.86255	700.92499	829.61877	-842.97559	458.14703	1393.93311	-747.93054	402.75931	1189.81421	-748.85297	408.09006	1065.41919	-719.71362	434.64258	948.22034	-741.67816	513.35883	830.52423	-701.63306	470.76395	831.87317	-706.84027	506.63589	752.09558	-1101.95923	533.21619	932.57312	-886.61005	543.42432	940.76550	-1041.10547	349.56958	945.84351	-895.73944	357.66412	951.58081	-1157.83789	480.07272	596.11511	-1150.70520	453.81598	463.28506	-1160.57019	315.67496	333.36578	-1115.76184	178.02103	159.46918	-1059.73120	130.55751	163.81157	-1114.52014	260.62738	36.54563	-826.26794	536.92078	610.45337	-854.34778	575.86871	457.37360	-843.77380	546.27521	282.55112	-890.56055	544.47974	77.58649	-941.34515	496.31854	37.40179	-891.10706	684.96893	41.75168	-959.40948	493.32632	1720.30115	-3102.00342	1973.12097	1023.96008	-3140.57422	2012.60645	1022.07611			 
265	2.640	-1048.70520	507.43887	1681.00598	-934.50690	516.73041	1689.68213	-1043.88953	399.95062	1617.81873	-922.71362	406.91315	1625.15088	-996.66803	385.40491	1430.98877	-989.05920	365.06119	1137.79492	-991.23322	533.08630	1373.27710	-998.37109	584.94037	1220.28784	-920.15338	341.73297	1232.99878	-1153.31946	475.38290	1399.34155	-1243.78455	473.66870	1217.86011	-1251.87341	489.03598	1065.30164	-1267.19556	564.98694	975.66016	-1230.73230	674.38422	896.09668	-1264.89954	631.02258	872.78314	-1265.20703	702.68219	827.33545	-841.16974	464.74731	1394.69287	-745.54285	410.04654	1190.66809	-746.41272	415.90289	1066.18262	-717.54620	443.22681	949.06049	-740.20801	522.46570	831.82324	-699.79346	480.31302	832.98181	-705.43292	516.54803	753.35596	-1100.04541	539.78027	933.24554	-884.44299	549.75305	941.02887	-1039.21887	355.91028	946.15503	-893.90222	363.90228	952.05994	-1157.19714	492.33621	596.33582	-1150.75708	468.01093	463.35760	-1160.56055	327.87347	336.71414	-1115.99695	187.24327	165.20741	-1059.67212	140.47859	171.42334	-1113.80615	262.58432	37.59813	-824.97168	540.64502	610.32922	-852.96155	578.45410	456.85916	-843.03979	547.26599	282.27914	-890.63293	544.31903	77.48238	-941.36383	496.31900	37.46254	-891.06091	685.19269	41.53411	-958.14142	499.73450	1720.59314	-3101.90576	1973.15405	1023.45514	-3140.61670	2012.53760	1022.06122			 
266	2.650	-1047.35522	513.87970	1681.40894	-933.09656	523.18622	1690.19470	-1042.32507	406.34677	1618.17004	-921.19733	413.28629	1625.69568	-994.82227	391.92407	1431.25842	-986.85175	371.51193	1138.26294	-989.53986	539.54932	1373.78113	-996.53259	591.42487	1220.75659	-917.76581	348.42944	1233.52417	-1151.59277	481.59702	1399.67639	-1241.68994	479.18362	1217.99939	-1249.81653	493.56091	1065.44910	-1265.23230	568.42371	975.00305	-1229.07349	676.92822	894.12811	-1263.23938	633.16724	871.31396	-1263.34082	704.10474	824.90741	-839.36737	471.45911	1395.41492	-743.11078	417.36176	1191.40625	-743.99329	423.70111	1066.83496	-715.35809	451.87772	949.83740	-738.61566	531.69470	833.06696	-698.03937	489.77887	833.91058	-703.94550	526.42078	754.49530	-1097.71887	545.81586	933.80725	-882.38660	555.84033	941.26166	-1037.45959	362.02670	946.30566	-892.22375	369.93369	952.49902	-1156.71509	504.41116	596.55603	-1150.83630	482.13232	463.54065	-1160.44983	340.52982	339.98520	-1116.28992	196.80141	170.71933	-1059.56274	150.57224	178.75101	-1113.10010	265.82269	39.62381	-823.75012	544.23975	610.16925	-851.65381	581.14136	456.29495	-842.12329	548.41718	281.92151	-890.60596	544.46082	77.33652	-941.36652	496.34235	37.59007	-891.04236	685.35736	41.31932	-956.84351	505.98691	1720.98572	-3101.91382	1973.15027	1023.38818	-3140.71582	2012.54321	1021.98016			 
267	2.660	-1045.77612	520.26740	1681.65771	-931.74890	529.55206	1690.57751	-1040.92542	412.74554	1618.54102	-919.78717	419.72806	1626.19312	-993.20367	398.19305	1431.78589	-984.76086	377.82425	1138.63379	-987.92950	545.97345	1374.15039	-994.82312	597.84863	1221.08276	-915.46515	355.00305	1234.01025	-1149.91077	487.85364	1399.90417	-1239.57166	484.62787	1217.99036	-1247.77576	497.99072	1065.46912	-1263.24780	571.95691	974.30743	-1227.27185	679.18744	891.81549	-1261.65515	635.16760	869.69080	-1261.65283	705.55426	822.39844	-837.76685	478.13724	1395.96362	-740.72485	424.82220	1192.00330	-741.56256	431.64282	1067.41431	-713.19971	460.69818	950.51929	-737.04089	541.01349	834.25366	-696.06671	499.35651	834.86108	-702.42957	536.41241	755.56177	-1095.83997	551.88824	934.15094	-880.35571	561.73834	941.38141	-1035.88293	367.98587	946.23798	-890.89154	375.67426	952.44885	-1156.17078	516.28040	596.84454	-1150.87244	495.94217	463.81396	-1160.31689	353.51505	342.60406	-1116.00452	206.89500	176.57561	-1059.58911	160.69020	185.83102	-1112.26392	270.81741	42.52740	-822.39392	547.69293	610.13977	-850.47333	584.06506	456.06451	-841.42584	549.66943	281.84689	-890.51929	544.88141	77.32338	-941.33862	496.33380	37.57809	-891.04810	685.52063	41.10212	-955.55029	512.41272	1721.38147	-3101.92407	1973.11902	1023.45654	-3140.74146	2012.43738	1021.99817			 
268	2.670	-1044.70435	526.63635	1681.98523	-930.39032	535.98920	1691.03723	-1039.54785	419.16861	1618.79333	-918.40820	426.11667	1626.56726	-991.34851	404.65887	1432.12952	-982.78442	384.06714	1139.05981	-986.38983	552.39636	1374.43152	-993.24890	604.15723	1221.30383	-913.33197	361.39719	1234.52869	-1148.34778	494.07895	1400.04968	-1237.54004	490.01016	1217.87317	-1245.56885	502.30118	1065.36108	-1261.48096	575.01947	973.38177	-1225.43896	681.10748	889.34998	-1260.05176	637.02374	867.96759	-1260.35840	706.96448	819.93597	-836.08319	484.84753	1396.45142	-738.30994	432.47778	1192.50024	-739.24023	439.65878	1067.89465	-711.05890	469.56946	951.09717	-735.41870	550.40247	835.33374	-694.32751	509.42697	835.71936	-700.81384	546.40900	756.53503	-1094.20068	557.97809	934.49432	-878.44214	567.40057	941.56122	-1034.48047	373.91202	946.02734	-889.34711	381.25644	952.63342	-1155.76404	527.81445	597.25818	-1150.70276	509.48508	464.19803	-1160.31055	366.73700	344.84860	-1115.41260	217.16705	182.06952	-1059.04028	171.11789	192.34573	-1111.99878	277.70163	46.07852	-821.31915	550.95166	609.95197	-848.95294	587.21680	455.86484	-840.71924	551.50122	281.59177	-890.55328	544.92804	77.32005	-941.29193	496.31741	37.70997	-891.09424	685.67725	40.92033	-954.21814	519.00043	1722.00183	-3101.93579	1973.05530	1023.91254	-3140.55591	2012.50452	1021.98755			 
